VIDEO INFO (+ DUAL AUDIO):


Format                           : MPEG-4
Format profile                   : Base Media
Codec ID                         : isom
File size                        : 1.10 GiB
Duration                         : 1h 30mn
Overall bit rate                 : 1 728 Kbps
Encoded date                     : UTC 2010-09-25 08:06:38
Tagged date                      : UTC 2010-09-25 08:06:38
Writing application              : Yamb 2.1.0.0 [http://yamb.unite-video.com]

Video
ID                               : 1
Format                           : AVC
Format/Info                      : Advanced Video Codec
Format profile                   : High@L4.1
Format settings, CABAC           : Yes
Format settings, ReFrames        : 3 frames
Codec ID                         : avc1
Codec ID/Info                    : Advanced Video Coding
Duration                         : 1h 30mn
Bit rate mode                    : Variable
Bit rate                         : 1 275 Kbps
Maximum bit rate                 : 3 343 Kbps
Width                            : 720 pixels
Height                           : 384 pixels
Display aspect ratio             : 1.875
Frame rate mode                  : Constant
Frame rate                       : 23.976 fps
Color space                      : YUV
Chroma subsampling               : 4:2:0
Bit depth                        : 8 bits
Scan type                        : Progressive
Bits/(Pixel*Frame)               : 0.192
Stream size                      : 828 MiB (74%)
Writing library                  : x264 core 67 r1162M f7bfcfa
Encoding settings                : cabac=1 / ref=3 / deblock=1:0:0 / analyse=0x3:0x113 / me=umh / subme=7 / psy_rd=1.0:0.0 / mixed_ref=1 / me_range=12 / chroma_me=1 / trellis=2 / 8x8dct=1 / cqm=0 / deadzone=21,11 / chroma_qp_offset=-2 / threads=1 / nr=0 / decimate=1 / mbaff=0 / bframes=3 / b_pyramid=0 / b_adapt=2 / b_bias=0 / direct=3 / wpredb=1 / keyint=250 / keyint_min=25 / scenecut=40 / rc=2pass / bitrate=1275 / ratetol=1.0 / qcomp=0.50 / qpmin=10 / qpmax=51 / qpstep=4 / cplxblur=20.0 / qblur=0.5 / vbv_maxrate=24000 / vbv_bufsize=24000 / ip_ratio=1.10 / pb_ratio=1.10 / aq=1:1.00
Encoded date                     : UTC 2010-09-23 17:25:14
Tagged date                      : UTC 2010-09-25 08:08:12

Audio #1
ID                               : 2
Format                           : AAC
Format/Info                      : Advanced Audio Codec
Format version                   : Version 4
Format profile                   : LC
Codec ID                         : 40
Duration                         : 1h 30mn
Bit rate mode                    : Variable
Bit rate                         : 320 Kbps
Maximum bit rate                 : 451 Kbps
Channel(s)                       : 6 channels
Channel positions                : Front: L C R, Side: L R, LFE
Sampling rate                    : 48.0 KHz
Compression mode                 : Lossy
Stream size                      : 208 MiB (19%)
Encoded date                     : UTC 2010-09-25 08:07:35
Tagged date                      : UTC 2010-09-25 08:08:12

Audio #2
ID                               : 3
Format                           : AAC
Format/Info                      : Advanced Audio Codec
Format version                   : Version 4
Format profile                   : LC
Codec ID                         : 40
Duration                         : 1h 30mn
Bit rate mode                    : Variable
Bit rate                         : 128 Kbps
Maximum bit rate                 : 209 Kbps
Channel(s)                       : 2 channels
Channel positions                : Front: L R
Sampling rate                    : 48.0 KHz
Compression mode                 : Lossy
Stream size                      : 83.0 MiB (7%)
Encoded date                     : UTC 2010-09-25 08:08:02
Tagged date                      : UTC 2010-09-25 08:08:12

______________________

Verenigde Staten
Horror / Komedie
91 minuten

geregisseerd door Dan O'Bannon
met Clu Gulager, James Karen en Don Calfa

Als de nieuwe medewerker aan zijn baas van een lokaal medisch magazijn vraagt wat het meest vreemde is wat hij ooit heeft gezien, zegt zijn baas een levende dode opgesloten in een stalen vat. Natuurlijk laat de baas dat vat zien aan de nieuwe medewerker, waarop met een rake klap op het vat de baas bewijst hoe sterk het vat is. Helaas is het vat niet meer 100% waarop deze knapt en een giftige damp zich via de luchtkokers verspreidt waarop de doden tot leven komen met maar 1 gerecht op hun menu: 'Brains !'

Ondertiteling: Nederlands (.srt, bijgevoegd)